<?xml version="1.0" encoding="UTF-8"?>
<svg width="36px" height="36px" viewBox="0 0 36 36" version="1.1" xmlns="http://www.w3.org/2000/svg" xmlns:xlink="http://www.w3.org/1999/xlink">
    <title>编组</title>
    <g id="页面-1" stroke="none" stroke-width="1" fill="none" fill-rule="evenodd">
        <g id="编组" transform="translate(0.500000, 0.500000)" fill-rule="nonzero">
            <path d="M17.320222,-1.0658141e-14 C26.8859769,-1.0658141e-14 34.6398101,7.7543961 34.6398101,17.3200635 C34.6398101,26.885414 26.8859769,34.6398101 17.320222,34.6398101 C7.7544671,34.6398101 -1.0658141e-14,26.885414 -1.0658141e-14,17.3200635 C-1.0658141e-14,7.7543961 7.7544671,-1.0658141e-14 17.320222,-1.0658141e-14 Z" id="形状-path" fill="#FFDA00"></path>
            <path d="M9.5993501,6.23502 C6.4661233,6.23502 3.9258832,8.7733353 3.9258832,11.9043149 C3.9258832,15.0356115 6.4661233,17.5739267 9.5993501,17.5739267 C10.5840695,17.5739267 11.5104727,17.322599 12.3177081,16.8814285 L12.3966647,16.9861748 L12.3966647,16.9861748 L12.4863179,17.0852163 L15.2192549,19.8162266 L9.3556265,25.6756814 C8.815152,26.2158537 8.7813723,27.0707924 9.2542875,27.6503107 L9.3556265,27.7623672 L9.5644872,27.971226 C10.1052588,28.5113985 10.9607996,28.5451592 11.5406563,28.0725083 L11.6527769,27.971226 L17.5164052,22.1117712 L23.3797167,27.971226 C23.9201912,28.5113985 24.7759919,28.5451592 25.3558822,28.0725083 L25.4680063,27.971226 L25.676867,27.7623672 C26.2173415,27.2221947 26.2511212,26.367256 25.778206,25.7877379 L25.676867,25.6756814 L14.7834682,14.7893547 C14.7197641,14.7259681 14.6509891,14.6705049 14.5793616,14.6207464 C15.02117,13.8141523 15.2725001,12.8887084 15.2725001,11.9043149 C15.2725001,8.7733353 12.73226,6.23502 9.5993501,6.23502 Z" id="形状-path" fill="#000000"></path>
            <path d="M26.1237464,6.5605101 C25.8207295,6.2574959 25.3448746,6.2322447 25.0130513,6.4847565 L24.9263632,6.5605101 C24.9263632,6.5605101 20.3615375,11.1595227 19.263672,12.4148937 C18.6862151,13.1466917 18.504294,14.0033612 18.5746537,14.9928256 C18.7191764,17.020562 20.3754827,18.6736837 22.5965685,18.6736837 C23.4789176,18.6736837 24.2630166,18.4118972 24.9010082,17.9700928 C25.5529452,17.567905 30.6961786,12.3264695 30.6961786,12.3264695 C31.0267424,11.9959085 31.0267424,11.460292 30.6961786,11.129731 C30.3931615,10.8270073 29.9175731,10.8017803 29.58555,11.0540501 L29.4978444,11.1306818 L29.4997461,11.1322665 L24.5926298,16.0358516 C24.2937594,16.3492982 23.8158203,16.3749698 23.501103,16.085927 C23.2149966,15.823449 23.1727472,15.3946467 23.3860227,15.0835929 L23.4576828,14.9940933 L25.6955662,12.7578151 L25.6939816,12.7559135 L28.4098041,10.0417005 C28.7406849,9.7111396 28.7406849,9.1755231 28.4098041,8.845279 C28.106787,8.5422648 27.6311986,8.5170136 27.2994196,8.7695255 L27.2127377,8.845279 L22.3056214,13.7488641 C22.006751,14.0619938 21.5288119,14.0879823 21.2140946,13.7989395 C20.9277,13.5364615 20.8854245,13.1073973 21.0986977,12.796534 L21.1703576,12.7071058 L26.1237464,7.7572485 C26.4543104,7.4266876 26.4543104,6.8907541 26.1237464,6.5605101 Z" id="形状-path" fill="#000000"></path>
        </g>
    </g>
</svg>